<svg id="Layer_1" enable-background="new 0 0 50 50" height="512" viewBox="0 0 50 50" width="512" xmlns="http://www.w3.org/2000/svg"><linearGradient id="SVGID_1_" gradientUnits="userSpaceOnUse" x1="-630" x2="-629.293" y1="0" y2=".707"><stop offset="0" stop-color="#dedfe3"/><stop offset=".1783311" stop-color="#dadbdf"/><stop offset=".3611409" stop-color="#cecfd3"/><stop offset=".546043" stop-color="#b9bcbf"/><stop offset=".7323959" stop-color="#9ca0a2"/><stop offset=".9181451" stop-color="#787d7e"/><stop offset="1" stop-color="#656b6c"/></linearGradient><g id="_x37_2"><g><g><g><g><g enable-background="new"><g><path d="m16.9968624 8.9723272 2.5793762-1.4989691c-.3913345.2274175-.6992531.6120062-.8840141 1.1534491l-2.5793762 1.49897c.184761-.5414428.4926796-.9260311.8840141-1.15345z" fill="#b5e5f4"/></g><g><path d="m38.1334648 35.3165092-2.5793762 1.49897c-.1386757.0805893-.2903938.142952-.4548683.1852226l2.5793762-1.49897c.1644745-.0422706.3161926-.1046333.4548683-.1852226z" fill="#e9e8e6"/></g><g><path d="m26.9751053 5.6070752-1.6804199 1.2349243c-.657959.3823242-1.0658569 1.195435-1.0691528 2.3511968l2.5794067-1.4990239c.0018311-.644165.2167969-1.3615723.5177612-1.9414063-.128479-.0334472-.2432251-.0835571-.3475952-.1456909z" fill="#b5e5f4"/></g><g><path d="m41.3210869 25.9659958-2.5793762 1.49897c-.3993759.2320919-.897934.3074112-1.4741058.1898746l2.5793762-1.49897c.5761718.1175366 1.0747299.0422173 1.4741058-.1898746z" fill="#82c6e0"/></g><g><path d="m35.2349167 20.784647c-.4344521-1.8050728-.0423088-3.2144299.8956985-3.7595329l-2.5793724 1.4989643c-.9380074.5451183-1.3301506 1.9544601-.89571 3.7595482.177227.736887.4745026 1.4585857.8514404 2.1242523l2.5793724-1.4989643c-.3769378-.6656819-.6741981-1.3873806-.8514289-2.1242676z" fill="#b5e5f4"/><path d="m36.0863457 22.9089146-2.5793724 1.4989643c.6826591 1.2055969 1.6303673 2.2248421 2.6258316 2.7995758.3755722.2168293.7579422.3706264 1.1347961.4473801l2.5793877-1.4989643c-.3768692-.0767555-.7592392-.2305508-1.1348114-.447382-.9954376-.5747319-1.9431458-1.5939923-2.6258316-2.7995739z" fill="#82c6e0"/><g><path d="m25.2898293 29.1557026c-.7473221-.4314556-1.5005226-1.1281948-2.1502934-2.047224-.1890316-.2677174-.3601646-.5426979-.5145378-.821207l-2.5793724 1.4989796c.1543732.278511.325491.5534763.5145378.8211918.6497707.9190311 1.4029579 1.6157684 2.1502934 2.0472393.9566574.5523376 1.9033146.6693287 2.6086273.2594452l2.5793705-1.4989662c-.7053109.4098833-1.6519528.2928789-2.6086254-.2594587z" fill="#82c6e0"/><path d="m22.3467045 20.7567177c.1127815-.1128826.2353344-.2070599.3661728-.2830925l-2.5793724 1.4989643c-.1308537.0760479-.2534065.1702251-.366188.2831078-1.0578671 1.0563259-.9017944 3.4016895.2783089 5.5305538l2.5793724-1.4989796c-1.1801034-2.1288795-1.336176-4.4742126-.2782937-5.5305538z" fill="#b5e5f4"/></g><g><path d="m32.5602722 31.6132717c-1.0661678-2.3119583-.8733463-4.5067387.372242-5.2305984l-2.5793724 1.4989643c-1.2455883.723875-1.4384232 2.918642-.3722401 5.2305984.1396732.3028526.2951107.5937119.4625988.8713303l2.5793724-1.4989662c-.1674881-.2776146-.3229103-.568491-.4626007-.8713284z" fill="#b5e5f4"/><path d="m35.5241928 35.0646629c-.9119377-.5264969-1.8120346-1.437458-2.5013199-2.5800629l-2.5793724 1.4989662c.6892872 1.1426048 1.5893822 2.053566 2.5013046 2.5800629.7470779.4313278 1.5018921.604866 2.1544151.4370651l2.5793724-1.4989662c-.652523.1678048-1.4073218-.0057372-2.1543998-.4370651z" fill="#82c6e0"/></g><g><path d="m26.8049049 7.6942005-2.5793705 1.4989796c-.0034027 1.1995296.4302025 2.5329685 1.1277618 3.7040796l2.5793705-1.4989653c-.6975574-1.1711111-1.1311626-2.5045499-1.1277618-3.7040939z" fill="#b5e5f4"/><path d="m30.4584446 14.023263c-.981041-.5664167-1.8700104-1.523983-2.5257778-2.6249685l-2.5793705 1.4989653c.6557655 1.1009855 1.544735 2.0585661 2.5257759 2.6249685 1.0189724.5882931 1.9418068.6430416 2.6081524.2557993l2.5793724-1.4989662c-.6663475.3872289-1.58918.3324956-2.6081524-.2557984z" fill="#82c6e0"/></g><g><path d="m18.6922283 8.6268063-2.5793877 1.4989653c-.5029926 1.4733276.0586109 3.6642752 1.2787342 5.4213305l2.5793724-1.4989653c-1.2201232-1.7570554-1.7817134-3.9480172-1.2787189-5.4213305z" fill="#b5e5f4"/><path d="m22.1644459 16.1561775c-.3755569-.2168312-.7571068-.5039454-1.133297-.8618765-.3924007-.3737831-.7475662-.7959585-1.0602016-1.2461643l-2.5793724 1.4989653c.3126373.4502058.6678009.8723965 1.0602016 1.2461643.3761902.3579445.7577419.6450443 1.133297.8618755.9836788.5679455 1.9246426.6519337 2.6098652.2537384l2.5793724-1.4989796c-.6852227.3982087-1.6261864.3142071-2.6098652-.2537231z" fill="#82c6e0"/></g></g><g><path d="m45.0334549 28.262104c-.0099487 4.5999756-1.6399536 7.8399658-4.2599487 9.3599854l-2.5800171 1.5c2.6199951-1.5200195 3.3392372-4.7386322 3.349247-9.3386078.0299683-9.2600098-7.0907555-19.7493896-15.1507511-24.4094219-4.0599976-2.3399658-6.2085056-3.3619547-8.8684788-1.8219767l2.5799561-1.5c2.6600342-1.539978 6.3300171-1.3299561 10.3900146 1.0200195 8.0599975 4.650024 14.5700073 15.9299918 14.539978 25.1900015z" fill="#57b3fe"/></g><g><path d="m27.9101257 4.5667634c8.0590782 4.6529117 14.5713158 15.9325542 14.5450592 25.1930523-.0262527 9.260498-6.5810547 12.9958801-14.6401329 8.342968-8.0591431-4.6529465-14.5713139-15.9325504-14.5450602-25.1930504.0262528-9.2604973 6.5809928-12.9959179 14.6401339-8.3429699zm7.1890946 32.4339385c1.6418037-.4219475 2.0125656-2.8459892.8277283-5.4161186-.7139702-1.5487213-1.8298836-2.7961617-2.9634666-3.4506359-.7475815-.4316158-1.5028992-.6053104-2.1556187-.4374695-1.6418037.4219494-2.0118065 2.8465023-.8269634 5.4157543.7145405 1.5492706 1.830389 2.7969666 2.9639091 3.4514046.7470741.431324 1.5018844.6048698 2.1544113.4370651m-9.41469-6.3689785c1.1955147-1.1949539.8396835-4.0385666-.7943649-6.3518295-.6496353-.9197559-1.4030247-1.617115-2.1502895-2.0484753-1.1331997-.6541805-2.2521477-.6968174-2.9725494.0242805-1.1962776 1.1945133-.8412094 4.0376129.7928371 6.3517532.649765.9190254 1.4029636 1.6157627 2.1502914 2.0472317 1.1337737.654585 2.2534828.6977349 2.9740753-.0229606m-9.571682-20.5059462c-.6318855 1.8508224.4150906 4.8349571 2.3389168 6.6674891.3761902.3579407.7577419.645052 1.1333122.8618889 1.5455914.8923473 2.985714.5899982 3.494091-.9004498.6318836-1.8508959-.4143906-4.8354301-2.3389187-6.66749-.3757439-.3576097-.7571049-.6446848-1.1323586-.8613377-1.5455283-.8922376-2.9866046-.5900745-3.4950427.8998995m21.1547565 17.5290633c1.9286079.3934269 2.9875908-1.3739529 2.3682518-3.948925-.4983444-2.070509-1.9315376-4.0320606-3.4775772-4.9246655-.3754425-.2167625-.7574997-.3704472-1.1344872-.4474258-1.9270782-.3925476-2.9875946 1.3765106-2.3682518 3.9498024.4982147 2.0714569 1.9321785 4.0317688 3.4772606 4.9238224.3755723.2168369.7579461.3706321 1.1348038.4473915m-13.0420723-18.461668c-.0065975 2.3272543 1.628973 5.1601744 3.6535358 6.3290558 2.0253258 1.169323 3.6708221.2307281 3.6774197-2.0965261.0065956-2.3263779-1.6282101-5.1588573-3.6535358-6.3281798-2.0245628-1.168882-3.6708241-.2307278-3.6774197 2.0956501" fill="#5094ff"/></g></g></g><g><g enable-background="new"><g><path d="m22.7467079 11.5389261c6.6013355 3.8112822 11.9348488 13.0500441 11.9133492 20.6347389-.0215034 7.5846939-5.3898849 10.6439667-11.9912186 6.8326836-6.600687-3.8109093-11.9342089-13.0489273-11.9127064-20.6336212s5.3898888-10.6447096 11.9905758-6.8338013z" fill="#4c5c75"/></g><g><path d="m22.7320576 16.7496719c4.0967388 2.3652534 7.4066811 8.0987606 7.3933353 12.8057652-.0133438 4.7070065-3.3449211 6.6055698-7.4416618 4.2403126-4.0963364-2.3650208-7.4062815-8.0980663-7.3929367-12.8050728.0133438-4.7070046 3.3449249-6.6060267 7.4412632-4.241005z" fill="#1d2943"/></g></g></g><g><path d="m45.5700607 46.5133171-4.1600341 2.4199829c-.9299927-1.6299438-1.7299805-3.25-2.3999634-4.8099976-1.0200195-2.3399658-1.7700195-4.539978-2.3100586-6.3800049-.0999756-.3499756-.1999512-.6799927-.2799683-1.0099487-.2000122.1499634-.4000244.289978-.6099854.4099731l-4.6400146 2.7000122c2.1500244-1.25 3.4799805-3.9000244 3.4899902-7.6699829.0100098-4.2800293-1.6799927-9.0900269-4.3499756-13.1500244-2.0499878-3.1300058-4.6900024-5.8200083-7.5599976-7.4799814-3.3200073-1.9200439-6.3300171-2.1000366-8.5100098-.8400269l4.6400146-2.6900024c2.1699829-1.2600093 5.1799927-1.0899653 8.5.8300171 2.8800049 1.6599731 5.5099487 4.3499756 7.5699463 7.4899912 2.1400146 3.2700195 3.6600342 7.0200195 4.1600342 10.5900269h.0100098v.039978c.0100098.0999756.039978.3400269.0799561.7199707.1400146 1.0599976.4700317 3.1700439 1.1600342 5.8400269.1500244.5700073.3099976 1.1799927.5 1.7999878.539978 1.8400269 1.289978 4.0400391 2.3099976 6.3900146.6699829 1.5499878 1.4699707 3.1699829 2.4000244 4.7999878z" fill="#1d2943"/></g><g><g><path d="m29.2934914 40.4604912-2.5793781 1.49897c-.1386738.0805893-.2903938.1429558-.4548683.1852264l2.5793762-1.49897c.1644763-.0422706.3161945-.1046333.4548702-.1852264z" fill="#e9e8e6"/></g><g><path d="m32.480835 31.1099396-2.5800152 1.5c-.3999634.2299805-.8999634.3099976-1.4699707.1900024-.3800049-.0800171-.7600098-.2299805-1.1400146-.4500122-.9899902-.5700073-1.9400024-1.5899658-2.6199951-2.7999878-.3800049-.6600342-.6799927-1.3900146-.8599854-2.1199951-.4299927-1.8099976-.039978-3.2200317.8999634-3.7600098l2.5800171-1.5c-.9400024.539978-1.3300171 1.9500122-.8999634 3.7600098.1799927.7399902.4799805 1.4599609.8599854 2.1199951.6799927 1.210022 1.6300049 2.2299805 2.6199951 2.7999878.3800049.2200317.7600098.3699951 1.1400146.4500122.5700073.1199951 1.0700054.039978 1.4699688-.1900024z" fill="#dedffb"/><g><path d="m19.060854 34.5599518-2.5800171 1.5c-.7099619.4099731-1.6499643.289978-2.6099863-.2600098-.75-.4299927-1.5-1.1300049-2.1500244-2.0499878-.1900024-.2700195-.3599854-.5400391-.5199585-.8200073-1.1799927-2.1300049-1.3300171-4.4700317-.2700195-5.5300293.1099854-.1099854.2299805-.2099609.3599854-.2799683l2.5800171-1.5c-.1300049.0700073-.25.1699829-.3599854.2799683-1.0599976 1.0599976-.9100342 3.4000244.2699585 5.5300293.1600342.2799683.3300171.5499878.5200195.8200073.6500244.9199829 1.4000244 1.6199951 2.1500254 2.0499878.9599608.5499878 1.8999633.6699829 2.6099853.2600098z" fill="#dedffb"/></g><g fill="#dedffb"><path d="m23.7202988 36.7572556c-1.0661678-2.3119583-.8733463-4.5067406.372242-5.2305984l-2.5793724 1.4989662c-1.2455883.7238731-1.4384232 2.9186401-.3722401 5.2305984.1396732.3028488.2951107.5937119.4625988.8713303l2.5793724-1.4989662c-.1674881-.2776185-.3229122-.568493-.4626007-.8713303z"/><path d="m26.6842194 40.2086487c-.9119396-.5264969-1.8120327-1.437458-2.5013199-2.5800629l-2.5793724 1.4989662c.6892872 1.1426048 1.5893803 2.0535622 2.5013065 2.5800629.747076.4313278 1.5018902.604866 2.1544151.4370613l2.5793724-1.4989662c-.6525249.1678047-1.4073257-.0057335-2.1544017-.4370613z"/></g><g><path d="m24.2308369 19.4199371-2.5800171 1.5c-.6699829.3900146-1.5899658.3300171-2.6099854-.25-.9799805-.5700073-1.8699951-1.5300293-2.5299683-2.6300049-.7000132-1.1699829-1.1300058-2.499999-1.1300058-3.7000113.0100098-1.1599731.4199829-1.9699707 1.0700083-2.3499756l2.5799561-1.5c-.6499634.3800049-1.0599976 1.1900024-1.0700073 2.3499756 0 1.2000122.4300537 2.5300293 1.1300049 3.7000113.6600342 1.0999756 1.5500488 2.0599976 2.5300293 2.6300049 1.0200194.5900269 1.9400024.6400147 2.6099853.25z" fill="#dedffb"/></g><g><path d="m15.9308481 21.549942-2.5800171 1.5c-.6799927.3999634-1.6199951.3200073-2.6099854-.25-.3699951-.2200317-.75-.5-1.1300049-.8599854-.3900146-.3800049-.75-.8000488-1.0599976-1.25-1.2199707-1.7600098-1.7799683-3.9500122-1.2799683-5.420043.1899414-.539978.4899902-.9299927.8899536-1.1499634l2.5800171-1.5c-.4000244.2199707-.7000122.6099854-.8900146 1.1499634-.5 1.4700317.0599976 3.670043 1.2800293 5.420043.3099976.4499512.6699829.8699951 1.0599976 1.25.3800049.3599854.7600098.6399536 1.1300049.8599854.9899903.5700073 1.9299927.6499634 2.6099854.25z" fill="#dedffb"/></g></g><g><path d="m36.1934891 33.4021187c-.0100098 4.5999756-1.6400146 7.8399658-4.2600098 9.3599854l-2.5800171 1.5c2.6199951-1.5200195 2.7042046-4.5179176 2.7142143-9.1178932.0300293-9.2600117-5.7241955-20.1985168-13.784193-24.8484802-4.0599966-2.3400264-6.940032-3.1436105-9.6000051-1.603632l2.5800171-1.5000005c2.6599731-1.539978 6.329957-1.3200073 10.3899546 1.02002 8.0600585 4.6499624 14.5700072 15.9299907 14.540039 25.1900005z" fill="#57b3fe"/></g><g><path d="m19.0701523 9.7107477c8.0590801 4.6529121 14.5713158 15.9325533 14.5450592 25.1930504-.0262527 9.260498-6.5810547 12.9958839-14.6401329 8.3429718-8.0591431-4.6529474-14.5713144-15.9325533-14.5450607-25.1930513s6.5809923-12.9959188 14.6401344-8.3429709zm7.1890926 32.43394c1.6418037-.4219513 2.0125694-2.8459892.8277283-5.4161186-.7139683-1.5487213-1.8298817-2.7961617-2.9634628-3.4506378-.7475815-.4316139-1.5029011-.6053085-2.1556206-.4374695-1.6418037.4219513-2.0118065 2.8465042-.8269634 5.4157562.7145405 1.5492706 1.830389 2.7969666 2.9639091 3.4514046.7470722.4313239 1.5018826.6048698 2.1544094.4370651m-9.4146881-6.3689805c1.1955147-1.1949539.8396835-4.0385666-.7943649-6.3518295-.6496353-.9197559-1.4030247-1.617115-2.1502886-2.0484753-1.1332006-.6541805-2.2521477-.6968174-2.9725513.0242825-1.1962776 1.1945114-.8412094 4.037611.7928381 6.3517494.6497641.9190254 1.4029646 1.6157646 2.1502914 2.0472336 1.1337728.6545868 2.2534828.6977348 2.9740753-.0229607m-9.5716829-20.5059461c-.6318841 1.8508234.4150915 4.8349581 2.3389177 6.6674891.3761902.3579407.757741.645052 1.1333122.8618889 1.5455914.8923473 2.9857149.5900002 3.4940901-.9004498.6318846-1.8508949-.4143896-4.8354301-2.3389168-6.6674891-.3757458-.3576097-.7571058-.6446848-1.1323586-.8613377-1.5455283-.8922376-2.986606-.5900754-3.4950446.8998986m21.1547594 17.5290632c1.928606.3934288 2.987587-1.3739529 2.3682499-3.948925-.4983444-2.070509-1.9315395-4.0320606-3.4775753-4.9246655-.3754444-.2167625-.7575016-.3704453-1.1344891-.4474258-1.9270802-.3925457-2.9875946 1.3765106-2.3682518 3.9498024.4982147 2.0714588 1.9321766 4.0317688 3.4772587 4.9238224.3755722.2168388.757946.3706322 1.1348076.4473915m-13.0420742-18.461668c-.0065975 2.3272552 1.628973 5.1601753 3.6535339 6.3290558 2.0253277 1.169323 3.6708241.2307281 3.6774216-2.0965271.0065956-2.326376-1.6282101-5.1588564-3.6535358-6.3281784-2.0245629-1.1688824-3.6708241-.2307282-3.6774197 2.0956497" fill="#5094ff"/></g><g><path d="m22.2008686 28.3199615c0 2.0099487-1.4299927 2.8299561-3.1900024 1.8099976-1.7600098-1.0100098-3.1799936-3.4700317-3.1700449-5.4900513.0100098-2.0199585 1.4300547-2.8299561 3.1900034-1.8199463 1.7600097 1.0199585 3.1799926 3.4799805 3.1700439 5.5z" fill="#00649b"/></g></g></g></g></g></g></svg>